<!-- icon666.com - MILLIONS vector ICONS FREE --><svg viewBox="0 0 512 512.00057" xmlns="http://www.w3.org/2000/svg"><path d="m511.21875 91.5625c-1.824219-5.4375-6.5625-9.375-12.242188-10.171875l-41.222656-5.765625 20.144532-20.144531c5.902343-5.902344 5.902343-15.472657 0-21.378907-5.902344-5.902343-15.476563-5.902343-21.378907 0l-20.140625 20.140626-5.769531-41.21875c-.796875-5.679688-4.734375-10.417969-10.171875-12.242188-5.4375-1.820312-11.4375-.40625-15.488281 3.648438l-31.621094 31.617187c-36.503906-19.753906-77.558594-30.25-120.226563-30.25-67.605468 0-131.164062 26.328125-178.96875 74.132813-47.804687 47.804687-74.132812 111.363281-74.132812 178.96875 0 67.605468 26.328125 131.164062 74.132812 178.96875 47.804688 47.804687 111.363282 74.132812 178.96875 74.132812 67.605469 0 131.167969-26.328125 178.972657-74.132812 47.804687-47.804688 74.132812-111.363282 74.132812-178.96875 0-42.667969-10.5-83.722657-30.253906-120.222657l31.621094-31.621093c4.050781-4.054688 5.464843-10.054688 3.644531-15.492188zm-85.617188 54.707031-52.515624-7.347656-7.351563-52.519531 39.136719-39.136719 5.769531 41.222656c.9375 6.683594 6.191406 11.941407 12.878906 12.875l41.214844 5.769531zm-395.367187 112.628907c0-122.890626 99.980469-222.867188 222.867187-222.867188 35.011719 0 68.160157 8.125 97.667969 22.574219l-11.742187 11.742187c-3.351563 3.355469-4.9375 8.085938-4.28125 12.785156l4.796875 34.265626c-25.1875-15.445313-54.792969-24.359376-86.441407-24.359376-91.453124 0-165.859374 74.40625-165.859374 165.859376 0 91.453124 74.40625 165.855468 165.859374 165.855468 91.453126 0 165.859376-74.402344 165.859376-165.855468 0-31.648438-8.917969-61.25-24.359376-86.4375l34.265626 4.792968c.699218.097656 1.398437.148438 2.097656.148438 3.980468 0 7.832031-1.574219 10.6875-4.429688l11.742187-11.742187c14.449219 29.511719 22.574219 62.65625 22.574219 97.667969 0 122.890624-99.980469 222.867187-222.867188 222.867187-122.886718 0-222.867187-99.976563-222.867187-222.867187zm271.246094 0c0 26.675781-21.703125 48.378906-48.378907 48.378906-26.675781 0-48.378906-21.703125-48.378906-48.378906 0-26.675782 21.703125-48.378907 48.378906-48.378907 7.835938 0 15.238282 1.882813 21.792969 5.207031l-32.480469 32.484376c-5.90625 5.902343-5.90625 15.472656 0 21.378906 2.949219 2.949218 6.820313 4.425781 10.6875 4.425781 3.867188 0 7.738282-1.472656 10.691407-4.425781l32.480469-32.484375c3.324218 6.554687 5.207031 13.957031 5.207031 21.792969zm-4.535157-65.222657c-12.535156-8.453125-27.621093-13.390625-43.84375-13.390625-43.347656 0-78.613281 35.265625-78.613281 78.613282 0 43.347656 35.265625 78.613281 78.613281 78.613281 43.347657 0 78.613282-35.265625 78.613282-78.613281 0-16.222657-4.9375-31.308594-13.390625-43.84375l40.722656-40.722657c18.5625 23.203125 29.679687 52.609375 29.679687 84.566407 0 74.785156-60.839843 135.625-135.625 135.625-74.78125 0-135.621093-60.839844-135.621093-135.625 0-74.78125 60.839843-135.621094 135.621093-135.621094 31.957032 0 61.363282 11.113281 84.570313 29.675781zm0 0" fill="#000000" style="fill: rgb(243, 156, 18);"></path></svg>