<svg width="314" height="218" viewBox="0 0 314 218" fill="none" xmlns="http://www.w3.org/2000/svg">
<g clip-path="url(#clip0_18_9)">
<path fill-rule="evenodd" clip-rule="evenodd" d="M156.474 0.0787354C130.395 0.0787354 109.254 21.2198 109.254 47.2986C109.254 73.3774 130.395 94.5183 156.474 94.5183C182.553 94.5183 203.694 73.3774 203.694 47.2986C203.694 21.2198 182.553 0.0787354 156.474 0.0787354ZM158.341 22.4118L164.632 35.0666C164.773 35.3867 164.996 35.6637 165.279 35.8694C165.561 36.0749 165.894 36.2018 166.241 36.237L180.213 38.3583C180.612 38.4104 180.989 38.575 181.298 38.833C181.607 39.091 181.837 39.4318 181.959 39.8154C182.082 40.1991 182.093 40.6097 181.991 40.9994C181.889 41.3891 181.678 41.7416 181.383 42.0159L171.069 51.8178C170.915 52.1112 170.835 52.4375 170.835 52.7687C170.835 53.1 170.915 53.4263 171.069 53.7196L173.044 67.618C173.128 68.0198 173.094 68.4373 172.946 68.82C172.798 69.2028 172.542 69.5342 172.209 69.7743C171.876 70.0144 171.48 70.1526 171.07 70.1724C170.66 70.1921 170.253 70.0925 169.899 69.8857L157.463 63.3022C157.142 63.1568 156.792 63.0816 156.439 63.0816C156.086 63.0816 155.737 63.1568 155.415 63.3022L142.98 69.8857C142.625 70.0925 142.219 70.1921 141.808 70.1724C141.399 70.1526 141.003 70.0144 140.67 69.7743C140.337 69.5342 140.081 69.2028 139.933 68.82C139.784 68.4373 139.75 68.0198 139.835 67.618L142.175 53.7196C142.276 53.3972 142.295 53.0547 142.231 52.7228C142.168 52.391 142.023 52.0801 141.809 51.8178L131.495 41.9427C131.222 41.6655 131.03 41.3184 130.941 40.9394C130.851 40.5605 130.868 40.1641 130.989 39.7939C131.109 39.4238 131.33 39.094 131.626 38.8408C131.922 38.5876 132.281 38.4206 132.666 38.3583L146.637 36.3102C146.985 36.275 147.317 36.1481 147.6 35.9424C147.883 35.7369 148.106 35.4599 148.247 35.1398L154.537 22.485C154.706 22.1268 154.971 21.8227 155.303 21.6074C155.635 21.392 156.021 21.2738 156.417 21.2662C156.812 21.2586 157.202 21.3618 157.542 21.5644C157.883 21.7668 158.159 22.0604 158.341 22.4118ZM205.341 79.8886C197.505 91.6157 185.561 100.364 171.566 104.075L184.581 126.616C185.512 128.231 187.324 129.123 189.171 128.88C191.019 128.637 192.538 127.305 193.02 125.505L197.708 108.011L215.202 112.698C217.002 113.181 218.916 112.531 220.05 111.053C221.184 109.574 221.316 107.558 220.384 105.945L205.341 79.8886ZM141.426 104.088C127.428 100.39 115.478 91.6518 107.633 79.9337L92.6153 105.945C91.6836 107.558 91.8157 109.574 92.9501 111.053C94.0845 112.531 95.9977 113.181 97.7976 112.698L115.292 108.011L119.98 125.505C120.462 127.305 121.981 128.637 123.828 128.88C125.676 129.123 127.488 128.231 128.42 126.616L141.426 104.088Z" fill="#F39C12"/>
</g>
<path d="M201 129C201 127.343 202.343 126 204 126H311C312.657 126 314 127.343 314 129V138C314 139.657 312.657 141 311 141H204C202.343 141 201 139.657 201 138V129Z" fill="#F39C12"/>
<path d="M63.4845 182.522C63.4845 181.704 63.3384 180.938 63.046 180.225C62.7746 179.512 62.3048 178.841 61.6366 178.212C60.9475 177.603 60.0497 177.047 58.943 176.544C57.8572 176.02 56.5 175.537 54.8713 175.097C52.3447 174.405 50.121 173.566 48.1999 172.58C46.2998 171.594 44.7442 170.514 43.5331 169.339C42.3221 168.165 41.4033 166.864 40.7769 165.438C40.1714 164.012 39.8686 162.46 39.8686 160.782C39.8686 158.852 40.2758 157.101 41.0901 155.528C41.9045 153.954 43.032 152.612 44.4728 151.5C45.9135 150.389 47.6153 149.539 49.5781 148.952C51.5408 148.344 53.6707 148.04 55.9675 148.04C58.3479 148.04 60.5195 148.386 62.4823 149.078C64.4659 149.77 66.1677 150.735 67.5876 151.972C69.0074 153.231 70.1141 154.72 70.9076 156.44C71.701 158.16 72.0978 160.048 72.0978 162.103H63.5159C63.4741 161.075 63.2862 160.131 62.9521 159.272C62.6389 158.412 62.1691 157.667 61.5426 157.038C60.8953 156.429 60.0914 155.958 59.1309 155.622C58.1913 155.265 57.0846 155.087 55.8109 155.087C54.6416 155.087 53.5976 155.234 52.6788 155.528C51.781 155.8 51.0188 156.188 50.3924 156.692C49.766 157.216 49.2857 157.835 48.9516 158.548C48.6384 159.24 48.4818 159.995 48.4818 160.813C48.4818 161.673 48.6906 162.449 49.1083 163.141C49.5467 163.833 50.1732 164.452 50.9875 164.998C51.8018 165.564 52.7832 166.078 53.9317 166.539C55.101 167.001 56.4165 167.431 57.8781 167.829C59.4441 168.27 60.9371 168.804 62.357 169.434C63.7769 170.063 65.0819 170.787 66.2721 171.605C68.0678 172.947 69.4981 174.51 70.563 176.292C71.628 178.075 72.1604 180.131 72.1604 182.459C72.1604 184.472 71.7532 186.266 70.9389 187.839C70.1454 189.391 69.0388 190.702 67.6189 191.772C66.199 192.862 64.5077 193.691 62.5449 194.257C60.5821 194.802 58.4419 195.075 56.1241 195.075C53.8481 195.075 51.593 194.74 49.3588 194.068C47.1455 193.376 45.214 192.369 43.5645 191.048C41.9984 189.748 40.756 188.216 39.8373 186.455C38.9394 184.693 38.4905 182.627 38.4905 180.257H47.135C47.1768 181.641 47.4169 182.826 47.8554 183.812C48.2939 184.798 48.9099 185.605 49.7033 186.234C50.4759 186.864 51.4051 187.325 52.4909 187.619C53.5976 187.912 54.8087 188.059 56.1241 188.059C57.2934 188.059 58.327 187.923 59.2249 187.65C60.1436 187.377 60.9162 187 61.5426 186.517C62.1691 186.035 62.6493 185.458 62.9834 184.787C63.3175 184.095 63.4845 183.34 63.4845 182.522Z" fill="#F39C12"/>
<path d="M105.834 188.122C106.69 188.122 107.505 187.996 108.277 187.744C109.05 187.493 109.728 187.136 110.313 186.675C110.898 186.213 111.347 185.658 111.66 185.007C111.994 184.357 112.14 183.633 112.098 182.836H120.304C120.346 184.598 119.981 186.234 119.208 187.744C118.456 189.255 117.423 190.555 116.107 191.646C114.792 192.736 113.257 193.596 111.503 194.226C109.77 194.834 107.933 195.138 105.991 195.138C103.36 195.138 101.052 194.698 99.0688 193.817C97.0851 192.915 95.4356 191.688 94.1201 190.136C92.7837 188.583 91.771 186.769 91.082 184.693C90.4138 182.595 90.0797 180.351 90.0797 177.96V177.016C90.0797 174.625 90.4138 172.391 91.082 170.315C91.7501 168.217 92.7524 166.392 94.0888 164.84C95.4251 163.288 97.0747 162.061 99.0375 161.159C101.021 160.257 103.318 159.806 105.928 159.806C108.016 159.806 109.948 160.121 111.722 160.75C113.497 161.379 115.032 162.26 116.327 163.393C117.6 164.547 118.592 165.941 119.302 167.577C120.012 169.192 120.346 171.007 120.304 173.02H112.098C112.14 172.181 112.015 171.384 111.722 170.629C111.43 169.874 111.002 169.224 110.438 168.679C109.874 168.133 109.196 167.703 108.402 167.389C107.609 167.053 106.742 166.885 105.803 166.885C104.425 166.885 103.287 167.168 102.389 167.735C101.491 168.301 100.781 169.056 100.259 170C99.7161 170.944 99.3298 172.024 99.1001 173.241C98.8913 174.457 98.7869 175.716 98.7869 177.016V177.96C98.7869 179.281 98.8913 180.561 99.1001 181.798C99.3089 183.015 99.6848 184.084 100.228 185.007C100.75 185.951 101.46 186.706 102.357 187.273C103.276 187.839 104.435 188.122 105.834 188.122Z" fill="#F39C12"/>
<path d="M140.353 177.142C140.353 174.667 140.708 172.381 141.418 170.283C142.128 168.165 143.172 166.329 144.55 164.777C145.908 163.225 147.568 162.009 149.53 161.128C151.514 160.247 153.78 159.806 156.327 159.806C158.875 159.806 161.14 160.247 163.124 161.128C165.107 162.009 166.788 163.225 168.166 164.777C169.524 166.329 170.557 168.165 171.267 170.283C171.977 172.381 172.332 174.667 172.332 177.142V177.803C172.332 180.299 171.977 182.606 171.267 184.724C170.557 186.822 169.524 188.646 168.166 190.199C166.809 191.751 165.139 192.967 163.155 193.848C161.171 194.708 158.916 195.138 156.39 195.138C153.842 195.138 151.566 194.708 149.562 193.848C147.578 192.967 145.908 191.751 144.55 190.199C143.172 188.646 142.128 186.822 141.418 184.724C140.708 182.606 140.353 180.299 140.353 177.803V177.142ZM149.061 177.803C149.061 179.229 149.196 180.571 149.468 181.83C149.739 183.067 150.167 184.147 150.752 185.07C151.337 186.014 152.088 186.759 153.007 187.304C153.947 187.849 155.074 188.122 156.39 188.122C157.663 188.122 158.76 187.849 159.678 187.304C160.597 186.759 161.349 186.014 161.934 185.07C162.497 184.147 162.915 183.067 163.186 181.83C163.458 180.571 163.594 179.229 163.594 177.803V177.142C163.594 175.758 163.458 174.447 163.186 173.209C162.915 171.972 162.497 170.881 161.934 169.937C161.349 168.993 160.597 168.249 159.678 167.703C158.76 167.158 157.643 166.885 156.327 166.885C155.032 166.885 153.926 167.158 153.007 167.703C152.088 168.249 151.337 168.993 150.752 169.937C150.167 170.881 149.739 171.972 149.468 173.209C149.196 174.447 149.061 175.758 149.061 177.142V177.803Z" fill="#F39C12"/>
<path d="M216.592 159.806C217.908 159.806 219.119 159.901 220.225 160.09C221.353 160.257 222.261 160.446 222.95 160.656L221.666 169.371C220.518 169.098 219.338 168.899 218.127 168.773C216.937 168.626 215.799 168.553 214.713 168.553C213.585 168.553 212.562 168.658 211.644 168.867C210.746 169.056 209.942 169.35 209.232 169.748C208.376 170.21 207.645 170.797 207.039 171.51C206.434 172.223 205.933 173.062 205.536 174.027V194.477H196.829V160.436H204.941L205.285 165.249L205.348 166.004C206.726 164.075 208.376 162.565 210.297 161.474C212.218 160.362 214.316 159.806 216.592 159.806Z" fill="#F39C12"/>
<path d="M259.412 195.107C256.802 195.107 254.432 194.677 252.302 193.817C250.172 192.957 248.345 191.782 246.821 190.293C245.296 188.825 244.117 187.094 243.281 185.102C242.467 183.088 242.06 180.938 242.06 178.652V177.394C242.06 174.793 242.467 172.423 243.281 170.283C244.096 168.123 245.234 166.267 246.695 164.714C248.157 163.162 249.89 161.956 251.895 161.096C253.899 160.236 256.081 159.806 258.441 159.806C260.884 159.806 263.055 160.215 264.955 161.033C266.876 161.83 268.505 162.963 269.841 164.431C271.157 165.899 272.159 167.672 272.848 169.748C273.537 171.804 273.882 174.08 273.882 176.576V180.288H250.892V180.382C251.185 181.746 251.56 182.847 252.02 183.686C252.479 184.504 253.095 185.249 253.868 185.92C254.661 186.612 255.57 187.147 256.593 187.524C257.616 187.902 258.733 188.091 259.944 188.091C261.656 188.091 263.316 187.765 264.924 187.115C266.532 186.465 267.837 185.49 268.839 184.189L273.193 188.909C272.086 190.482 270.332 191.908 267.931 193.187C265.53 194.467 262.69 195.107 259.412 195.107ZM258.378 166.885C257.397 166.885 256.499 167.064 255.684 167.42C254.87 167.756 254.16 168.249 253.555 168.899C252.928 169.549 252.406 170.325 251.989 171.227C251.571 172.129 251.258 173.136 251.049 174.247H265.331V173.555C265.331 172.632 265.164 171.762 264.83 170.944C264.496 170.126 264.037 169.413 263.452 168.804C262.867 168.217 262.147 167.756 261.291 167.42C260.456 167.064 259.485 166.885 258.378 166.885Z" fill="#F39C12"/>
<path d="M0 206C0 204.343 1.34315 203 3 203H311C312.657 203 314 204.343 314 206V215C314 216.657 312.657 218 311 218H3C1.34315 218 0 216.657 0 215V206Z" fill="#F39C12"/>
<path d="M0 129C0 127.343 1.34315 126 3 126H110C111.657 126 113 127.343 113 129V138C113 139.657 111.657 141 110 141H3C1.34315 141 0 139.657 0 138V129Z" fill="#F39C12"/>
<defs>
<clipPath id="clip0_18_9">
<rect width="129" height="129" fill="white" transform="translate(92)"/>
</clipPath>
</defs>
</svg>
