
<!-- icon666.com - MILLIONS vector ICONS FREE --><svg enable-background="new 0 0 32 32" viewBox="0 0 32 32" xmlns="http://www.w3.org/2000/svg" fill="#f39c12"><g id="_x32_9_user"><path d="m24 9c0-4.411-3.589-8-8-8s-8 3.589-8 8 3.589 8 8 8 8-3.589 8-8zm-8 6c-3.309 0-6-2.691-6-6s2.691-6 6-6 6 2.691 6 6-2.691 6-6 6zm5-6c0 .552-.447 1-1 1s-1-.448-1-1c0-1.654-1.346-3-3-3-.553 0-1-.448-1-1s.447-1 1-1c2.757 0 5 2.243 5 5zm7.998 20.792c-.111-7.072-5.899-12.792-12.998-12.792-7.168 0-13 5.832-13 13 0 .552.447 1 1 1h24c.007 0 .014-.001.02 0 .553 0 1-.448 1-1 0-.071-.007-.141-.022-.208zm-23.953-.792c.507-5.599 5.226-10 10.955-10s10.448 4.401 10.955 10z"/></g></svg>